<svg viewBox="0 0 32 33" fill="none" xmlns="http://www.w3.org/2000/svg">
    <g clip-path="url(#clip0_5942_951)">
        <path d="M12.6666 15.1666V23.1666M18 12.42L17.3333 15.1666H21.22C21.427 15.1666 21.6311 15.2148 21.8163 15.3074C22.0014 15.4 22.1625 15.5344 22.2866 15.7C22.4108 15.8656 22.4948 16.0578 22.5318 16.2615C22.5688 16.4651 22.5579 16.6746 22.5 16.8733L20.9466 22.2066C20.8659 22.4836 20.6974 22.7269 20.4666 22.9C20.2359 23.0731 19.9551 23.1666 19.6666 23.1666H10.6666C10.313 23.1666 9.97389 23.0262 9.72384 22.7761C9.47379 22.5261 9.33331 22.1869 9.33331 21.8333V16.5C9.33331 16.1464 9.47379 15.8072 9.72384 15.5572C9.97389 15.3071 10.313 15.1666 10.6666 15.1666H12.5066C12.7547 15.1665 12.9978 15.0972 13.2086 14.9665C13.4194 14.8357 13.5896 14.6488 13.7 14.4266L16 9.83331C16.3144 9.83721 16.6238 9.91209 16.9052 10.0524C17.1866 10.1927 17.4326 10.3947 17.6249 10.6434C17.8172 10.8922 17.9509 11.1812 18.0158 11.4888C18.0808 11.7964 18.0753 12.1147 18 12.42Z" stroke="#FDFDFD" stroke-width="2" stroke-linecap="round" stroke-linejoin="round"/>
    </g>
    <defs>
        <clipPath id="clip0_5942_951">
            <rect width="16" height="16" fill="white" transform="translate(8 8.5)"/>
        </clipPath>
    </defs>
</svg>


<svg width="32" height="33" viewBox="0 0 32 33" fill="none" xmlns="http://www.w3.org/2000/svg">
<g clip-path="url(#clip0_5942_955)">
    <path d="M19.3333 17.8333V9.83331M14 20.58L14.6667 17.8333H10.78C10.573 17.8333 10.3688 17.7851 10.1837 17.6925C9.99856 17.6 9.83752 17.4656 9.71332 17.3C9.58913 17.1344 9.50519 16.9421 9.46816 16.7385C9.43113 16.5348 9.44203 16.3254 9.49999 16.1266L11.0533 10.7933C11.1341 10.5164 11.3025 10.2731 11.5333 10.1C11.7641 9.92688 12.0448 9.83331 12.3333 9.83331H21.3333C21.6869 9.83331 22.0261 9.97379 22.2761 10.2238C22.5262 10.4739 22.6667 10.813 22.6667 11.1666V16.5C22.6667 16.8536 22.5262 17.1927 22.2761 17.4428C22.0261 17.6928 21.6869 17.8333 21.3333 17.8333H19.4933C19.2453 17.8334 19.0022 17.9028 18.7914 18.0335C18.5805 18.1642 18.4104 18.3512 18.3 18.5733L16 23.1666C15.6856 23.1628 15.3762 23.0879 15.0948 22.9476C14.8134 22.8073 14.5674 22.6052 14.3751 22.3565C14.1827 22.1078 14.0491 21.8188 13.9842 21.5112C13.9192 21.2035 13.9246 20.8852 14 20.58Z" stroke="#FDFDFD" stroke-width="2" stroke-linecap="round" stroke-linejoin="round"/>
</g>
<defs>
    <clipPath id="clip0_5942_955">
        <rect width="16" height="16" fill="white" transform="translate(8 8.5)"/>
    </clipPath>
</defs>
</svg>
